# xmcd
#
# Track frame offsets:
#	150
#	32950
#	62469
#	78859
#	92040
#	132452
#	171296
#	215628
#	242253
#	270286
#
# Disc length: 4125 seconds
#
# Revision: 0
# Processed by: cddbd v1.5.2PL0 Copyright (c) Steve Scherf et al.
# Submitted via: audiograbber 1.83.01
#
DISCID=7f101b0a
DTITLE=Grateful Dead - 78-05-07 Rennselaer Polytechnic, Troy NY
DYEAR=1900
DGENRE=
TTITLE0=Jack Straw
TTITLE1=Dire Wolf
TTITLE2=Mexicali Blues
TTITLE3=Mama Tried
TTITLE4=Tennessee Jed
TTITLE5=It's All Over Now
TTITLE6=Friend Of The Devil
TTITLE7=Passenger
TTITLE8=Brown Eyed Women
TTITLE9=The Music Never Stopped
EXTD=
EXTT0=
EXTT1=
EXTT2=
EXTT3=
EXTT4=
EXTT5=
EXTT6=
EXTT7=
EXTT8=
EXTT9=
PLAYORDER=
